<svg xmlns="http://www.w3.org/2000/svg" width="182.81" height="35" viewBox="0 0 182.81 35"><rect class="svg__rect" x="0" y="0" width="46.31" height="35" fill="#31C4F3"/><rect class="svg__rect" x="44.31" y="0" width="138.5" height="35" fill="#389AD5"/><path class="svg__text" d="M15.70 22L14.22 22L14.22 13.47L15.70 13.47L19.51 19.54L19.51 13.47L20.98 13.47L20.98 22L19.50 22L15.70 15.95L15.70 22ZM25.46 18.00L25.46 18.00L25.46 17.52Q25.46 16.28 25.90 15.32Q26.34 14.37 27.15 13.86Q27.95 13.35 28.99 13.35Q30.04 13.35 30.84 13.85Q31.65 14.35 32.09 15.29Q32.53 16.23 32.53 17.48L32.53 17.48L32.53 17.96Q32.53 19.21 32.10 20.16Q31.67 21.10 30.86 21.61Q30.06 22.12 29.01 22.12L29.01 22.12Q27.97 22.12 27.16 21.61Q26.35 21.10 25.90 20.17Q25.46 19.23 25.46 18.00ZM26.94 17.46L26.94 17.96Q26.94 19.36 27.49 20.13Q28.03 20.90 29.01 20.90L29.01 20.90Q29.99 20.90 30.52 20.15Q31.05 19.40 31.05 17.96L31.05 17.96L31.05 17.51Q31.05 16.09 30.52 15.34Q29.98 14.58 28.99 14.58L28.99 14.58Q28.03 14.58 27.49 15.33Q26.95 16.09 26.94 17.46L26.94 17.46Z" fill="#FFFFFF"/><path class="svg__text" d="M60.88 22L58.50 22L58.50 13.60L62.34 13.60Q63.48 13.60 64.32 13.98Q65.16 14.35 65.62 15.06Q66.07 15.76 66.07 16.71L66.07 16.71Q66.07 17.62 65.65 18.30Q65.22 18.98 64.43 19.36L64.43 19.36L66.24 22L63.70 22L62.17 19.77L60.88 19.77L60.88 22ZM60.88 15.47L60.88 17.93L62.20 17.93Q62.93 17.93 63.30 17.61Q63.67 17.29 63.67 16.71L63.67 16.71Q63.67 16.12 63.30 15.79Q62.93 15.47 62.20 15.47L62.20 15.47L60.88 15.47ZM77.61 22L70.86 22L70.86 13.60L77.45 13.60L77.45 15.44L73.22 15.44L73.22 16.85L76.95 16.85L76.95 18.63L73.22 18.63L73.22 20.17L77.61 20.17L77.61 22ZM81.82 21.24L81.82 21.24L82.60 19.49Q83.17 19.86 83.91 20.09Q84.65 20.32 85.37 20.32L85.37 20.32Q86.74 20.32 86.75 19.64L86.75 19.64Q86.75 19.28 86.36 19.11Q85.97 18.93 85.10 18.74L85.10 18.74Q84.15 18.53 83.51 18.30Q82.88 18.06 82.42 17.55Q81.97 17.03 81.97 16.16L81.97 16.16Q81.97 15.39 82.39 14.77Q82.81 14.15 83.64 13.79Q84.48 13.43 85.69 13.43L85.69 13.43Q86.51 13.43 87.32 13.62Q88.12 13.80 88.74 14.17L88.74 14.17L88.01 15.93Q86.80 15.28 85.67 15.28L85.67 15.28Q84.96 15.28 84.64 15.49Q84.32 15.70 84.32 16.04L84.32 16.04Q84.32 16.37 84.70 16.54Q85.09 16.71 85.94 16.89L85.94 16.89Q86.90 17.10 87.53 17.33Q88.16 17.56 88.62 18.07Q89.08 18.58 89.08 19.46L89.08 19.46Q89.08 20.21 88.66 20.83Q88.25 21.44 87.41 21.80Q86.56 22.17 85.36 22.17L85.36 22.17Q84.34 22.17 83.38 21.92Q82.42 21.67 81.82 21.24ZM96.04 22L93.66 22L93.66 13.60L97.50 13.60Q98.64 13.60 99.48 13.98Q100.32 14.35 100.78 15.06Q101.24 15.76 101.24 16.71L101.24 16.71Q101.24 17.66 100.78 18.35Q100.32 19.05 99.48 19.42Q98.64 19.80 97.50 19.80L97.50 19.80L96.04 19.80L96.04 22ZM96.04 15.47L96.04 17.93L97.36 17.93Q98.09 17.93 98.46 17.61Q98.83 17.29 98.83 16.71L98.83 16.71Q98.83 16.12 98.46 15.80Q98.09 15.47 97.36 15.47L97.36 15.47L96.04 15.47ZM105.56 17.80L105.56 17.80Q105.56 16.55 106.16 15.55Q106.77 14.56 107.83 14.00Q108.89 13.43 110.22 13.43L110.22 13.43Q111.55 13.43 112.62 14.00Q113.68 14.56 114.29 15.55Q114.89 16.55 114.89 17.80L114.89 17.80Q114.89 19.05 114.29 20.04Q113.68 21.04 112.62 21.60Q111.56 22.17 110.22 22.17L110.22 22.17Q108.89 22.17 107.83 21.60Q106.77 21.04 106.16 20.04Q105.56 19.05 105.56 17.80ZM107.96 17.80L107.96 17.80Q107.96 18.51 108.26 19.05Q108.56 19.60 109.08 19.90Q109.59 20.20 110.22 20.20L110.22 20.20Q110.86 20.20 111.38 19.90Q111.89 19.60 112.19 19.05Q112.49 18.51 112.49 17.80L112.49 17.80Q112.49 17.09 112.19 16.54Q111.89 16 111.38 15.70Q110.86 15.40 110.22 15.40L110.22 15.40Q109.59 15.40 109.07 15.70Q108.56 16 108.26 16.54Q107.96 17.09 107.96 17.80ZM121.95 22L119.62 22L119.62 13.60L121.58 13.60L125.29 18.07L125.29 13.60L127.62 13.60L127.62 22L125.66 22L121.95 17.52L121.95 22ZM132.19 21.24L132.19 21.24L132.97 19.49Q133.53 19.86 134.28 20.09Q135.02 20.32 135.74 20.32L135.74 20.32Q137.11 20.32 137.11 19.64L137.11 19.64Q137.11 19.28 136.72 19.11Q136.33 18.93 135.47 18.74L135.47 18.74Q134.52 18.53 133.88 18.30Q133.25 18.06 132.79 17.55Q132.34 17.03 132.34 16.16L132.34 16.16Q132.34 15.39 132.76 14.77Q133.18 14.15 134.01 13.79Q134.85 13.43 136.05 13.43L136.05 13.43Q136.88 13.43 137.68 13.62Q138.49 13.80 139.11 14.17L139.11 14.17L138.37 15.93Q137.17 15.28 136.04 15.28L136.04 15.28Q135.33 15.28 135.01 15.49Q134.69 15.70 134.69 16.04L134.69 16.04Q134.69 16.37 135.07 16.54Q135.45 16.71 136.30 16.89L136.30 16.89Q137.27 17.10 137.90 17.33Q138.53 17.56 138.99 18.07Q139.45 18.58 139.45 19.46L139.45 19.46Q139.45 20.21 139.03 20.83Q138.61 21.44 137.77 21.80Q136.93 22.17 135.73 22.17L135.73 22.17Q134.71 22.17 133.75 21.92Q132.79 21.67 132.19 21.24ZM146.41 22L144.03 22L144.03 13.60L146.41 13.60L146.41 22ZM154.16 22L150.57 13.60L153.14 13.60L155.42 19.07L157.75 13.60L160.10 13.60L156.50 22L154.16 22ZM171.00 22L164.25 22L164.25 13.60L170.85 13.60L170.85 15.44L166.61 15.44L166.61 16.85L170.34 16.85L170.34 18.63L166.61 18.63L166.61 20.17L171.00 20.17L171.00 22Z" fill="#FFFFFF" x="57.31"/></svg>